<?xml version="1.0" encoding="UTF-8" standalone="no"?>
<!DOCTYPE svg PUBLIC "-//W3C//DTD SVG 1.1//EN" "http://www.w3.org/Graphics/SVG/1.1/DTD/svg11.dtd">
<svg version="1.1" xmlns="http://www.w3.org/2000/svg" xmlns:xlink="http://www.w3.org/1999/xlink" preserveAspectRatio="xMidYMid meet" viewBox="0 0 140 140" width="140" height="140"><defs><path d="M105.27 30.01C109.94 30.01 113.72 33.79 113.72 38.45C113.72 54.51 113.72 94.23 113.72 110.29C113.72 114.96 109.94 118.74 105.27 118.74C89.11 118.74 49.09 118.74 32.93 118.74C28.26 118.74 24.48 114.96 24.48 110.29C24.48 94.23 24.48 54.51 24.48 38.45C24.48 33.79 28.26 30.01 32.93 30.01C49.09 30.01 89.11 30.01 105.27 30.01Z" id="f1Um2q5ukz"></path><path d="M131.29 32.82C131.29 43.86 122.49 52.82 111.65 52.82C100.8 52.82 92 43.86 92 32.82C92 21.78 100.8 12.82 111.65 12.82C122.49 12.82 131.29 21.78 131.29 32.82Z" id="a1Mtz2bUd"></path><path d="M56.37 45.23L56.71 45.27L57.04 45.32L57.37 45.38L57.69 45.45L58.01 45.53L58.32 45.63L58.63 45.74L58.93 45.86L59.23 45.99L59.52 46.14L59.8 46.29L60.08 46.46L60.35 46.63L60.61 46.82L60.86 47.01L61.11 47.21L61.35 47.43L61.58 47.65L61.8 47.88L62.01 48.12L62.22 48.36L62.41 48.62L62.6 48.88L62.77 49.15L62.94 49.43L63.09 49.71L63.23 50L63.37 50.3L63.49 50.6L63.6 50.91L63.69 51.22L63.78 51.54L63.85 51.86L63.91 52.19L63.96 52.52L63.99 52.86L64.01 53.2L64.02 53.54L64.02 53.73L64.01 53.92L64 54.1L63.99 54.29L63.97 54.47L63.95 54.65L63.92 54.83L63.89 55.01L63.85 55.19L63.81 55.37L63.77 55.55L63.73 55.72L63.68 55.89L63.62 56.06L63.57 56.23L63.51 56.4L63.44 56.57L63.37 56.73L63.3 56.89L63.23 57.06L63.15 57.21L63.07 57.37L62.98 57.53L62.9 57.68L62.81 57.83L62.71 57.98L62.62 58.13L62.52 58.27L62.41 58.41L62.31 58.55L62.2 58.69L62.09 58.83L61.97 58.96L61.86 59.09L61.74 59.22L61.62 59.35L61.49 59.47L61.36 59.59L61.23 59.71L61.1 59.83L61.33 60.43L61.58 61.02L61.85 61.61L62.14 62.19L62.44 62.76L62.76 63.33L63.1 63.88L63.45 64.43L63.82 64.97L64.21 65.49L64.61 66.01L65.02 66.52L65.45 67.01L65.89 67.49L66.35 67.96L66.82 68.42L67.3 68.87L67.79 69.3L68.29 69.71L68.8 70.12L69.33 70.5L69.86 70.87L70.41 71.23L70.96 71.57L71.52 71.89L72.09 72.2L72.67 72.48L73.25 72.75L73.84 73L74.44 73.23L75.05 73.44L75.66 73.63L76.27 73.8L76.89 73.95L77.52 74.08L78.15 74.18L78.78 74.26L79.41 74.32L80.05 74.36L80.69 74.37L80.72 74.37L80.75 74.37L80.77 74.37L80.8 74.37L80.83 74.37L80.86 74.37L80.89 74.37L80.92 74.38L80.95 74.38L80.98 74.38L81 74.38L81.03 74.38L81.06 74.38L81.09 74.38L81.12 74.38L81.15 74.38L81.17 74.39L81.2 74.39L81.23 74.39L81.26 74.39L81.29 74.39L81.31 74.39L81.34 74.4L81.37 74.4L81.4 74.4L81.45 74.4L81.48 74.41L81.51 74.41L81.57 74.41L81.65 74.42L81.73 74.42L81.79 74.43L81.82 74.43L81.93 74.24L82.04 74.06L82.16 73.88L82.28 73.7L82.41 73.53L82.54 73.36L82.68 73.19L82.82 73.03L82.96 72.87L83.11 72.71L83.26 72.56L83.42 72.41L83.58 72.27L83.74 72.13L83.91 71.99L84.08 71.86L84.25 71.73L84.43 71.61L84.61 71.49L84.79 71.38L84.98 71.27L85.17 71.16L85.36 71.06L85.56 70.97L85.76 70.88L85.96 70.8L86.16 70.72L86.37 70.64L86.58 70.57L86.79 70.51L87 70.46L87.22 70.4L87.44 70.36L87.66 70.32L87.88 70.28L88.1 70.26L88.33 70.23L88.56 70.22L88.79 70.21L89.02 70.21L89.36 70.21L89.7 70.23L90.04 70.27L90.37 70.31L90.7 70.37L91.02 70.45L91.34 70.53L91.65 70.63L91.96 70.74L92.26 70.86L92.56 70.99L92.85 71.14L93.13 71.29L93.41 71.45L93.68 71.63L93.94 71.81L94.19 72.01L94.44 72.21L94.68 72.42L94.91 72.65L95.13 72.88L95.35 73.12L95.55 73.36L95.74 73.62L95.93 73.88L96.1 74.15L96.27 74.43L96.42 74.71L96.57 75L96.7 75.3L96.82 75.6L96.93 75.91L97.03 76.22L97.11 76.54L97.18 76.86L97.24 77.19L97.29 77.52L97.33 77.86L97.35 78.19L97.35 78.54L97.35 78.88L97.33 79.22L97.29 79.56L97.24 79.89L97.18 80.22L97.11 80.54L97.03 80.86L96.93 81.17L96.82 81.48L96.7 81.78L96.57 82.08L96.42 82.37L96.27 82.65L96.1 82.93L95.93 83.2L95.74 83.46L95.55 83.71L95.35 83.96L95.13 84.2L94.91 84.43L94.68 84.65L94.44 84.86L94.19 85.07L93.94 85.26L93.68 85.45L93.41 85.62L93.13 85.79L92.85 85.94L92.56 86.08L92.26 86.22L91.96 86.34L91.65 86.45L91.34 86.54L91.02 86.63L90.7 86.7L90.37 86.76L90.04 86.81L89.7 86.84L89.36 86.86L89.02 86.87L88.79 86.87L88.56 86.86L88.33 86.84L88.11 86.82L87.88 86.79L87.66 86.76L87.44 86.72L87.22 86.67L87.01 86.62L86.79 86.57L86.58 86.5L86.37 86.44L86.17 86.36L85.96 86.28L85.76 86.2L85.56 86.11L85.37 86.02L85.18 85.92L84.99 85.81L84.8 85.71L84.62 85.59L84.44 85.47L84.26 85.35L84.09 85.23L83.91 85.09L83.75 84.96L83.58 84.82L83.42 84.68L83.27 84.53L83.12 84.38L82.97 84.22L82.82 84.06L82.68 83.9L82.55 83.73L82.41 83.56L82.29 83.39L82.16 83.21L82.04 83.03L81.93 82.85L81.82 82.66L81.79 82.66L81.76 82.67L81.73 82.67L81.71 82.67L81.68 82.67L81.65 82.67L81.62 82.67L81.6 82.67L81.54 82.68L81.51 82.68L81.46 82.68L81.38 82.68L81.35 82.68L81.3 82.69L81.27 82.69L81.24 82.69L81.21 82.69L81.18 82.69L81.16 82.69L81.13 82.69L81.1 82.7L81.07 82.7L81.04 82.7L81.02 82.7L80.99 82.7L80.96 82.7L80.93 82.7L80.9 82.7L80.87 82.7L80.84 82.7L80.81 82.7L80.78 82.7L80.75 82.7L80.72 82.7L80.69 82.7L80.1 82.7L79.52 82.68L78.94 82.64L78.36 82.59L77.78 82.53L77.2 82.45L76.63 82.36L76.06 82.26L75.49 82.14L74.92 82.01L74.35 81.87L73.79 81.71L73.23 81.54L72.67 81.36L72.12 81.17L71.57 80.97L71.02 80.76L70.48 80.53L69.94 80.29L69.4 80.04L68.87 79.78L68.35 79.51L67.83 79.23L67.31 78.94L66.8 78.64L66.29 78.33L65.79 78.01L65.3 77.68L64.81 77.34L64.33 76.99L63.85 76.63L63.38 76.27L62.91 75.89L62.45 75.51L62 75.11L61.56 74.71L61.12 74.31L60.69 73.89L60.27 73.47L59.85 73.04L59.85 88.03L60.04 88.14L60.22 88.25L60.4 88.37L60.57 88.5L60.75 88.62L60.91 88.76L61.08 88.89L61.24 89.03L61.4 89.18L61.55 89.32L61.7 89.48L61.85 89.63L61.99 89.79L62.13 89.95L62.26 90.12L62.39 90.29L62.52 90.46L62.64 90.64L62.76 90.82L62.87 91L62.98 91.19L63.08 91.38L63.18 91.57L63.27 91.76L63.36 91.96L63.44 92.16L63.52 92.36L63.59 92.57L63.66 92.78L63.72 92.99L63.77 93.2L63.83 93.41L63.87 93.63L63.91 93.85L63.94 94.07L63.97 94.29L63.99 94.52L64.01 94.75L64.02 94.97L64.02 95.2L64.01 95.55L63.99 95.89L63.96 96.22L63.91 96.55L63.85 96.88L63.78 97.2L63.69 97.52L63.6 97.84L63.49 98.14L63.37 98.45L63.23 98.74L63.09 99.03L62.94 99.31L62.77 99.59L62.6 99.86L62.41 100.12L62.22 100.38L62.01 100.63L61.8 100.86L61.58 101.09L61.35 101.32L61.11 101.53L60.86 101.73L60.61 101.93L60.35 102.11L60.08 102.29L59.8 102.45L59.52 102.61L59.23 102.75L58.93 102.88L58.63 103L58.32 103.11L58.01 103.21L57.69 103.29L57.37 103.37L57.04 103.43L56.71 103.47L56.37 103.51L56.03 103.53L55.69 103.54L55.34 103.53L55 103.51L54.67 103.47L54.34 103.43L54.01 103.37L53.69 103.29L53.37 103.21L53.05 103.11L52.75 103L52.44 102.88L52.15 102.75L51.86 102.61L51.58 102.45L51.3 102.29L51.03 102.11L50.77 101.93L50.51 101.73L50.26 101.53L50.03 101.32L49.8 101.09L49.57 100.86L49.36 100.63L49.16 100.38L48.96 100.12L48.78 99.86L48.6 99.59L48.44 99.31L48.28 99.03L48.14 98.74L48.01 98.45L47.89 98.14L47.78 97.84L47.68 97.52L47.6 97.2L47.52 96.88L47.46 96.55L47.42 96.22L47.38 95.89L47.36 95.55L47.35 95.2L47.36 94.97L47.37 94.75L47.38 94.52L47.4 94.29L47.43 94.07L47.46 93.85L47.5 93.63L47.55 93.41L47.6 93.2L47.66 92.99L47.72 92.78L47.78 92.57L47.86 92.36L47.93 92.16L48.02 91.96L48.11 91.76L48.2 91.57L48.3 91.38L48.4 91.19L48.51 91L48.62 90.82L48.73 90.64L48.86 90.46L48.98 90.29L49.11 90.12L49.24 89.95L49.38 89.79L49.52 89.63L49.67 89.48L49.82 89.32L49.98 89.18L50.13 89.03L50.29 88.89L50.46 88.76L50.63 88.62L50.8 88.5L50.98 88.37L51.15 88.25L51.34 88.14L51.52 88.03L51.52 60.72L51.34 60.61L51.15 60.49L50.98 60.37L50.8 60.25L50.63 60.12L50.46 59.99L50.29 59.85L50.13 59.71L49.98 59.57L49.82 59.42L49.67 59.27L49.52 59.11L49.38 58.95L49.24 58.79L49.11 58.62L48.98 58.45L48.86 58.28L48.73 58.1L48.62 57.92L48.51 57.74L48.4 57.55L48.3 57.36L48.2 57.17L48.11 56.98L48.02 56.78L47.93 56.58L47.86 56.38L47.78 56.17L47.72 55.96L47.66 55.75L47.6 55.54L47.55 55.33L47.5 55.11L47.46 54.89L47.43 54.67L47.4 54.45L47.38 54.22L47.37 54L47.36 53.77L47.35 53.54L47.36 53.2L47.38 52.86L47.42 52.52L47.46 52.19L47.52 51.86L47.6 51.54L47.68 51.22L47.78 50.91L47.89 50.6L48.01 50.3L48.14 50L48.28 49.71L48.44 49.43L48.6 49.15L48.78 48.88L48.96 48.62L49.16 48.36L49.36 48.12L49.57 47.88L49.8 47.65L50.03 47.43L50.26 47.21L50.51 47.01L50.77 46.82L51.03 46.63L51.3 46.46L51.58 46.29L51.86 46.14L52.15 45.99L52.44 45.86L52.75 45.74L53.05 45.63L53.37 45.53L53.69 45.45L54.01 45.38L54.34 45.32L54.67 45.27L55 45.23L55.34 45.21L55.69 45.21L56.03 45.21L56.37 45.23ZM53.23 91.84L52.33 92.74L51.73 93.89L51.52 95.2L51.73 96.52L52.33 97.67L53.23 98.57L54.37 99.16L55.69 99.37L57.01 99.16L58.15 98.57L59.05 97.67L59.64 96.52L59.85 95.2L59.64 93.89L59.05 92.74L58.15 91.84L57.01 91.25L55.69 91.04L54.37 91.25L53.23 91.84ZM86.56 75.17L85.66 76.08L85.07 77.22L84.85 78.54L85.07 79.86L85.66 81L86.56 81.9L87.7 82.49L89.02 82.7L90.34 82.49L91.48 81.9L92.38 81L92.97 79.86L93.19 78.54L92.97 77.22L92.38 76.08L91.48 75.17L90.34 74.58L89.02 74.37L87.7 74.58L86.56 75.17ZM53.23 50.18L52.33 51.08L51.73 52.22L51.52 53.54L51.73 54.86L52.33 56L53.23 56.9L54.37 57.49L55.69 57.71L57.01 57.49L58.15 56.9L59.05 56L59.64 54.86L59.85 53.54L59.64 52.22L59.05 51.08L58.15 50.18L57.01 49.59L55.69 49.37L54.37 49.59L53.23 50.18Z" id="a1hGG74JAP"></path></defs><g><g><g><use xlink:href="#f1Um2q5ukz" opacity="1" fill="#ffffff" fill-opacity="0"></use><g><use xlink:href="#f1Um2q5ukz" opacity="1" fill-opacity="0" stroke="#929295" stroke-width="10" stroke-opacity="1"></use></g></g><g><use xlink:href="#a1Mtz2bUd" opacity="1" fill="#929295" fill-opacity="1"></use><g><use xlink:href="#a1Mtz2bUd" opacity="1" fill-opacity="0" stroke="#494dfe" stroke-width="0" stroke-opacity="1"></use></g></g><g><use xlink:href="#a1hGG74JAP" opacity="1" fill="#929295" fill-opacity="1"></use><g><use xlink:href="#a1hGG74JAP" opacity="1" fill-opacity="0" stroke="#929295" stroke-width="1" stroke-opacity="0"></use></g></g></g></g></svg>